<svg xmlns="http://www.w3.org/2000/svg" version="1.1" xmlns:xlink="http://www.w3.org/1999/xlink" xmlns:svgjs="http://svgjs.dev/svgjs" width="1440" height="560" preserveAspectRatio="none" viewBox="0 0 1440 560"><g mask="url(&quot;#SvgjsMask1008&quot;)" fill="none"><path d="M 0,207 C 57.6,167.2 172.8,-2.8 288,8 C 403.2,18.8 460.8,252.6 576,261 C 691.2,269.4 748.8,49.4 864,50 C 979.2,50.6 1036.8,261.2 1152,264 C 1267.2,266.8 1382.4,104 1440,64L1440 560L0 560z" fill="rgba(25, 118, 210, 1)"></path><path d="M 0,295 C 96,340.2 288,520.8 480,521 C 672,521.2 768,297.8 960,296 C 1152,294.2 1344,468.8 1440,512L1440 560L0 560z" fill="rgba(21, 101, 192, 1)"></path></g><defs><mask id="SvgjsMask1008"><rect width="1440" height="560" fill="#ffffff"></rect></mask></defs></svg>